<svg width="24" height="24" viewBox="0 0 24 24" fill="none" xmlns="http://www.w3.org/2000/svg">
<path d="M11.9986 0C9.74704 0 7.49551 0.06 5.39409 0.21C4.06034 0.296593 2.80214 0.859246 1.84881 1.7954C0.895494 2.73155 0.310538 3.97887 0.20057 5.31C-0.0395931 8.52 -0.0696134 11.7 0.140529 14.91C0.255608 16.3366 0.908714 17.6662 1.96767 18.6297C3.02663 19.5933 4.41235 20.1188 5.84439 20.1H8.99653V16.2H5.84439C4.91376 16.23 4.10321 15.57 4.01315 14.64C3.83303 11.64 3.86305 8.64 4.07319 5.64C4.13323 4.8 4.79368 4.17 5.63425 4.11C7.67564 3.96 9.8371 3.9 11.9986 3.9C14.16 3.9 16.3215 3.99 18.3629 4.08C19.1734 4.14 19.8639 4.77 19.9239 5.61C20.1641 8.61 20.1641 11.61 19.984 14.61C19.8639 15.54 19.0834 16.23 18.1527 16.2H15.0006L8.99653 20.1V24L15.0006 20.1H18.1527C21.1248 20.13 23.6164 17.85 23.8566 14.91C24.0667 11.73 24.0367 8.52 23.8266 5.34C23.7166 4.00887 23.1317 2.76156 22.1783 1.8254C21.225 0.889246 19.9668 0.326593 18.6331 0.24C16.5016 0.06 14.2501 0 11.9986 0ZM6.95515 8.76C6.5949 8.76 6.2947 9.06 6.2947 9.42V11.76C6.2947 12.09 6.47482 12.39 6.77503 12.54C8.39612 13.32 10.1973 13.74 11.9986 13.8C13.7998 13.74 15.601 13.32 17.2221 12.54C17.5223 12.39 17.7024 12.09 17.7024 11.76V9.42C17.7024 9.33 17.6724 9.27 17.6124 9.21C17.5809 9.12768 17.5329 9.05265 17.4714 8.9895C17.4099 8.92634 17.3361 8.87639 17.2546 8.84269C17.1731 8.80899 17.0856 8.79226 16.9975 8.79352C16.9093 8.79477 16.8223 8.81399 16.7418 8.85C15.2408 9.51 13.6197 9.87 11.9685 9.9C10.3174 9.87 8.69633 9.48 7.19531 8.82C7.12066 8.78255 7.03865 8.76206 6.95515 8.76Z" fill="url(#paint0_linear_3644_28)"/>
<defs>
<linearGradient id="paint0_linear_3644_28" x1="24.0583" y1="1.02819e-06" x2="0.0163122" y2="24.0583" gradientUnits="userSpaceOnUse">
<stop stop-color="#6EF638"/>
<stop offset="1" stop-color="#58C52D"/>
</linearGradient>
</defs>
</svg>
