<svg width="90" height="25" viewBox="0 0 90 25" fill="none" xmlns="http://www.w3.org/2000/svg">
<path d="M28.3892 17.4634V2.82389H33.0017C34.6461 2.82389 35.9028 3.17149 36.7718 3.8667C37.6542 4.56191 38.0954 5.57798 38.0954 6.91492C38.0954 8.18502 37.5606 9.13424 36.4911 9.76261C37.9082 10.4043 38.6168 11.5274 38.6168 13.1317C38.6168 14.5489 38.1489 15.6251 37.213 16.3604C36.2905 17.0957 35.0071 17.4634 33.3626 17.4634H28.3892ZM33.2423 11.2065H31.1166V14.9566H33.3626C35.0338 14.9566 35.8694 14.3283 35.8694 13.0715C35.8694 12.4432 35.6755 11.9752 35.2878 11.6677C34.9001 11.3602 34.2183 11.2065 33.2423 11.2065ZM33.0017 5.33065H31.1166V8.65963H33.0017C34.5659 8.65963 35.348 8.07806 35.348 6.91492C35.348 6.35341 35.1675 5.95233 34.8065 5.71168C34.4456 5.45766 33.8439 5.33065 33.0017 5.33065ZM49.8119 15.9192C48.6353 17.1091 47.2048 17.704 45.5203 17.704C43.8357 17.704 42.3985 17.1091 41.2086 15.9192C40.0321 14.7293 39.4439 13.2921 39.4439 11.6076C39.4439 9.8963 40.0321 8.45241 41.2086 7.2759C42.3852 6.08602 43.8224 5.49108 45.5203 5.49108C47.2048 5.49108 48.6353 6.08602 49.8119 7.2759C51.0017 8.45241 51.5967 9.8963 51.5967 11.6076C51.5967 13.2921 51.0017 14.7293 49.8119 15.9192ZM43.0937 14.1143C43.7488 14.8096 44.5577 15.1572 45.5203 15.1572C46.4829 15.1572 47.2917 14.8096 47.9468 14.1143C48.6019 13.4191 48.9295 12.5835 48.9295 11.6076C48.9295 10.6049 48.6019 9.76261 47.9468 9.08077C47.2917 8.38556 46.4829 8.03795 45.5203 8.03795C44.5577 8.03795 43.7488 8.38556 43.0937 9.08077C42.4386 9.76261 42.1111 10.6049 42.1111 11.6076C42.1111 12.5835 42.4386 13.4191 43.0937 14.1143ZM51.7613 8.15828V5.73173H53.7667V3.94692L56.4941 2.08189V5.73173H58.8805V8.15828H56.4941V12.5501C56.4941 13.5796 56.6278 14.2347 56.8952 14.5154C57.1759 14.7828 57.8377 14.9165 58.8805 14.9165V17.4634H58.4995C56.6813 17.4634 55.4379 17.1158 54.7694 16.4206C54.101 15.7254 53.7667 14.4419 53.7667 12.5702V8.15828H51.7613ZM60.1924 17.4634V5.73173H62.9197V17.4634H60.1924ZM59.8514 2.864C59.8514 2.35596 60.0052 1.94819 60.3127 1.6407C60.6202 1.31983 61.0346 1.1594 61.556 1.1594C62.0774 1.1594 62.4919 1.31315 62.7994 1.62064C63.1069 1.92814 63.2606 2.34259 63.2606 2.864C63.2606 3.37203 63.1069 3.7798 62.7994 4.0873C62.4919 4.39479 62.0774 4.54854 61.556 4.54854C61.0079 4.54854 60.5868 4.40148 60.2926 4.10735C59.9985 3.79986 59.8514 3.3854 59.8514 2.864ZM64.0401 8.15828V5.73173H66.0254V5.71168C66.0254 4.02714 66.3998 2.82389 67.1485 2.10194C67.8972 1.37999 69.1606 1.01902 70.9387 1.01902H71.1793V3.52578C70.1365 3.52578 69.4747 3.67285 69.194 3.96697C68.9132 4.24773 68.7728 4.83598 68.7728 5.73173H71.1793V8.15828H68.7728V17.4634H66.0254V8.15828H64.0401ZM72.3149 17.4634V5.73173H75.0423V17.4634H72.3149ZM71.974 2.864C71.974 2.35596 72.1277 1.94819 72.4352 1.6407C72.7427 1.31983 73.1572 1.1594 73.6786 1.1594C74.2 1.1594 74.6144 1.31315 74.9219 1.62064C75.2294 1.92814 75.3832 2.34259 75.3832 2.864C75.3832 3.37203 75.2294 3.7798 74.9219 4.0873C74.6144 4.39479 74.2 4.54854 73.6786 4.54854C73.1304 4.54854 72.7093 4.40148 72.4152 4.10735C72.121 3.79986 71.974 3.3854 71.974 2.864ZM78.2884 22.878L80.755 16.8818L75.942 5.73173H78.8298L82.0986 13.633L85.187 5.73173H88.0346L81.0358 22.878H78.2884Z" fill="white"/>
<path d="M54.96 22.9559C54.8428 22.8331 54.7842 22.6685 54.7842 22.462C54.7842 22.2556 54.8456 22.091 54.9683 21.9682C55.0911 21.8399 55.2585 21.7757 55.4705 21.7757C55.6826 21.7757 55.8472 21.8399 55.9643 21.9682C56.0871 22.091 56.1485 22.2556 56.1485 22.462C56.1485 22.6629 56.0871 22.8275 55.9643 22.9559C55.8416 23.0786 55.6742 23.14 55.4622 23.14C55.2501 23.14 55.0827 23.0786 54.96 22.9559ZM59.0446 23.14C58.3304 23.14 57.7278 22.8945 57.2368 22.4035C56.7458 21.9069 56.5003 21.3042 56.5003 20.5956C56.5003 19.8814 56.7458 19.2788 57.2368 18.7878C57.7278 18.2912 58.3304 18.0429 59.0446 18.0429C59.5803 18.0429 60.0546 18.1824 60.4675 18.4613C60.8804 18.7348 61.1845 19.1002 61.3798 19.5578L60.367 19.9846C60.2554 19.7112 60.0825 19.4964 59.8481 19.3402C59.6138 19.1839 59.3487 19.1058 59.053 19.1058C58.6401 19.1058 58.2941 19.2509 58.0152 19.541C57.7418 19.8256 57.605 20.1771 57.605 20.5956C57.605 21.0085 57.7445 21.36 58.0235 21.6502C58.3025 21.9348 58.6485 22.077 59.0614 22.077C59.3683 22.077 59.6361 21.9961 59.8649 21.8343C60.0936 21.6669 60.2666 21.4437 60.3838 21.1647L61.3965 21.6C61.1956 22.0687 60.8915 22.4425 60.4842 22.7215C60.0769 23.0005 59.597 23.14 59.0446 23.14ZM65.9521 22.3951C65.4611 22.8917 64.8641 23.14 64.161 23.14C63.458 23.14 62.8582 22.8917 62.3616 22.3951C61.8705 21.8985 61.625 21.2987 61.625 20.5956C61.625 19.8814 61.8705 19.2788 62.3616 18.7878C62.8526 18.2912 63.4524 18.0429 64.161 18.0429C64.8641 18.0429 65.4611 18.2912 65.9521 18.7878C66.4487 19.2788 66.697 19.8814 66.697 20.5956C66.697 21.2987 66.4487 21.8985 65.9521 22.3951ZM63.1483 21.6418C63.4217 21.932 63.7593 22.077 64.161 22.077C64.5628 22.077 64.9004 21.932 65.1738 21.6418C65.4472 21.3517 65.5839 21.0029 65.5839 20.5956C65.5839 20.1771 65.4472 19.8256 65.1738 19.541C64.9004 19.2509 64.5628 19.1058 64.161 19.1058C63.7593 19.1058 63.4217 19.2509 63.1483 19.541C62.8749 19.8256 62.7382 20.1771 62.7382 20.5956C62.7382 21.0029 62.8749 21.3517 63.1483 21.6418ZM67.1949 23.0396V18.1433H68.3164V18.7124C68.6512 18.2661 69.1171 18.0429 69.7142 18.0429C70.4674 18.0429 70.9975 18.3246 71.3044 18.8882C71.4774 18.626 71.7006 18.4195 71.974 18.2688C72.253 18.1182 72.5654 18.0429 72.9114 18.0429C73.5642 18.0429 74.058 18.2214 74.3928 18.5785C74.7332 18.9356 74.9034 19.4406 74.9034 20.0934V23.0396H73.7484V20.1855C73.7484 19.8228 73.6563 19.5382 73.4722 19.3318C73.2936 19.1253 73.0314 19.0221 72.6854 19.0221C72.3674 19.0221 72.1079 19.1337 71.907 19.3569C71.7062 19.5745 71.6057 19.8898 71.6057 20.3027V23.0396H70.4591V20.152C70.4591 19.7949 70.3698 19.5187 70.1912 19.3234C70.0183 19.1225 69.7644 19.0221 69.4296 19.0221C69.1004 19.0221 68.8326 19.1337 68.6261 19.3569C68.4252 19.5801 68.3248 19.9037 68.3248 20.3278V23.0396H67.1949Z" fill="white"/>
<path d="M12.3307 0.5C10.1745 0.5 8.01826 0.557499 6.00578 0.701248C4.72848 0.784233 3.52353 1.32344 2.61056 2.22058C1.69759 3.11771 1.13739 4.31305 1.03208 5.5887C0.802079 8.66492 0.773329 11.7124 0.974577 14.7886C1.08479 16.1557 1.71025 17.4299 2.72439 18.3533C3.73853 19.2767 5.06559 19.7804 6.43702 19.7623H9.45574V16.0248H6.43702C5.54578 16.0536 4.76954 15.4211 4.68329 14.5299C4.51079 11.6549 4.53954 8.77992 4.74079 5.90495C4.79829 5.09995 5.43078 4.49621 6.23578 4.43871C8.19076 4.29496 10.2607 4.23746 12.3307 4.23746C14.4007 4.23746 16.4707 4.32371 18.4257 4.40996C19.2019 4.46746 19.8631 5.07121 19.9206 5.8762C20.1506 8.75117 20.1506 11.6261 19.9781 14.5011C19.8631 15.3924 19.1156 16.0536 18.2244 16.0248H15.2057L9.45574 19.7623V23.4998L15.2057 19.7623H18.2244C21.0706 19.7911 23.4569 17.6061 23.6869 14.7886C23.8881 11.7411 23.8594 8.66492 23.6581 5.61745C23.5528 4.3418 22.9926 3.14646 22.0796 2.24933C21.1667 1.35219 19.9617 0.812982 18.6844 0.729998C16.6432 0.557499 14.4869 0.5 12.3307 0.5ZM7.50076 8.89492C7.15577 8.89492 6.86827 9.18242 6.86827 9.52741V11.7699C6.86827 12.0861 7.04077 12.3736 7.32826 12.5174C8.88075 13.2649 10.6057 13.6674 12.3307 13.7249C14.0557 13.6674 15.7807 13.2649 17.3332 12.5174C17.6207 12.3736 17.7932 12.0861 17.7932 11.7699V9.52741C17.7932 9.44116 17.7644 9.38366 17.7069 9.32616C17.6767 9.24728 17.6308 9.17537 17.5719 9.11485C17.513 9.05432 17.4424 9.00645 17.3643 8.97416C17.2863 8.94187 17.2025 8.92583 17.118 8.92704C17.0336 8.92824 16.9503 8.94666 16.8732 8.98117C15.4357 9.61366 13.8832 9.95866 12.302 9.98741C10.7207 9.95866 9.16825 9.58491 7.73076 8.95242C7.65927 8.91653 7.58073 8.89689 7.50076 8.89492Z" fill="url(#paint0_linear_3644_2)"/>
<defs>
<linearGradient id="paint0_linear_3644_2" x1="23.88" y1="0.500001" x2="0.839997" y2="23.54" gradientUnits="userSpaceOnUse">
<stop stop-color="#6EF638"/>
<stop offset="1" stop-color="#58C52D"/>
</linearGradient>
</defs>
</svg>
