<svg width="89" height="24" viewBox="0 0 89 24" fill="none" xmlns="http://www.w3.org/2000/svg">
<path d="M27.5492 16.9634V2.32389H32.1617C33.8061 2.32389 35.0628 2.67149 35.9319 3.3667C36.8142 4.06191 37.2554 5.07798 37.2554 6.41492C37.2554 7.68502 36.7207 8.63424 35.6511 9.26261C37.0683 9.90434 37.7768 11.0274 37.7768 12.6317C37.7768 14.0489 37.3089 15.1251 36.373 15.8604C35.4506 16.5957 34.1671 16.9634 32.5227 16.9634H27.5492ZM32.4023 10.7065H30.2766V14.4566H32.5227C34.1938 14.4566 35.0294 13.8283 35.0294 12.5715C35.0294 11.9432 34.8356 11.4752 34.4479 11.1677C34.0601 10.8602 33.3783 10.7065 32.4023 10.7065ZM32.1617 4.83065H30.2766V8.15963H32.1617C33.7259 8.15963 34.508 7.57806 34.508 6.41492C34.508 5.85341 34.3275 5.45233 33.9666 5.21168C33.6056 4.95766 33.004 4.83065 32.1617 4.83065ZM48.9719 15.4192C47.7954 16.6091 46.3648 17.204 44.6803 17.204C42.9958 17.204 41.5585 16.6091 40.3687 15.4192C39.1922 14.2293 38.6039 12.7921 38.6039 11.1076C38.6039 9.3963 39.1922 7.95241 40.3687 6.7759C41.5452 5.58602 42.9824 4.99108 44.6803 4.99108C46.3648 4.99108 47.7954 5.58602 48.9719 6.7759C50.1618 7.95241 50.7567 9.3963 50.7567 11.1076C50.7567 12.7921 50.1618 14.2293 48.9719 15.4192ZM42.2538 13.6143C42.9089 14.3096 43.7177 14.6572 44.6803 14.6572C45.6429 14.6572 46.4517 14.3096 47.1068 13.6143C47.7619 12.9191 48.0895 12.0835 48.0895 11.1076C48.0895 10.1049 47.7619 9.26261 47.1068 8.58077C46.4517 7.88556 45.6429 7.53795 44.6803 7.53795C43.7177 7.53795 42.9089 7.88556 42.2538 8.58077C41.5987 9.26261 41.2711 10.1049 41.2711 11.1076C41.2711 12.0835 41.5987 12.9191 42.2538 13.6143ZM50.9214 7.65828V5.23173H52.9268V3.44692L55.6541 1.58189V5.23173H58.0406V7.65828H55.6541V12.0501C55.6541 13.0796 55.7878 13.7347 56.0552 14.0154C56.336 14.2828 56.9977 14.4165 58.0406 14.4165V16.9634H57.6595C55.8413 16.9634 54.5979 16.6158 53.9295 15.9206C53.261 15.2254 52.9268 13.9419 52.9268 12.0702V7.65828H50.9214ZM59.3524 16.9634V5.23173H62.0797V16.9634H59.3524ZM59.0115 2.364C59.0115 1.85596 59.1652 1.44819 59.4727 1.1407C59.7802 0.819832 60.1946 0.6594 60.7161 0.6594C61.2375 0.6594 61.6519 0.813148 61.9594 1.12064C62.2669 1.42814 62.4207 1.84259 62.4207 2.364C62.4207 2.87203 62.2669 3.2798 61.9594 3.5873C61.6519 3.89479 61.2375 4.04854 60.7161 4.04854C60.1679 4.04854 59.7468 3.90148 59.4526 3.60735C59.1585 3.29986 59.0115 2.8854 59.0115 2.364ZM63.2001 7.65828V5.23173H65.1855V5.21168C65.1855 3.52714 65.5598 2.32389 66.3085 1.60194C67.0572 0.879994 68.3206 0.519021 70.0987 0.519021H70.3394V3.02578C69.2965 3.02578 68.6348 3.17285 68.354 3.46697C68.0732 3.74773 67.9329 4.33598 67.9329 5.23173H70.3394V7.65828H67.9329V16.9634H65.1855V7.65828H63.2001ZM71.4749 16.9634V5.23173H74.2023V16.9634H71.4749ZM71.134 2.364C71.134 1.85596 71.2877 1.44819 71.5952 1.1407C71.9027 0.819832 72.3172 0.6594 72.8386 0.6594C73.36 0.6594 73.7745 0.813148 74.082 1.12064C74.3894 1.42814 74.5432 1.84259 74.5432 2.364C74.5432 2.87203 74.3894 3.2798 74.082 3.5873C73.7745 3.89479 73.36 4.04854 72.8386 4.04854C72.2905 4.04854 71.8693 3.90148 71.5752 3.60735C71.2811 3.29986 71.134 2.8854 71.134 2.364ZM77.4484 22.378L79.915 16.3818L75.102 5.23173H77.9898L81.2587 13.133L84.347 5.23173H87.1947L80.1958 22.378H77.4484Z" fill="#0B3404"/>
<path d="M54.12 22.4559C54.0028 22.3331 53.9442 22.1685 53.9442 21.962C53.9442 21.7556 54.0056 21.591 54.1283 21.4682C54.2511 21.3399 54.4185 21.2757 54.6305 21.2757C54.8426 21.2757 55.0072 21.3399 55.1243 21.4682C55.2471 21.591 55.3085 21.7556 55.3085 21.962C55.3085 22.1629 55.2471 22.3275 55.1243 22.4559C55.0016 22.5786 54.8342 22.64 54.6222 22.64C54.4101 22.64 54.2427 22.5786 54.12 22.4559ZM58.2046 22.64C57.4904 22.64 56.8878 22.3945 56.3968 21.9035C55.9058 21.4069 55.6603 20.8042 55.6603 20.0956C55.6603 19.3814 55.9058 18.7788 56.3968 18.2878C56.8878 17.7912 57.4904 17.5429 58.2046 17.5429C58.7403 17.5429 59.2146 17.6824 59.6275 17.9613C60.0404 18.2348 60.3445 18.6002 60.5398 19.0578L59.527 19.4846C59.4154 19.2112 59.2425 18.9964 59.0081 18.8402C58.7738 18.6839 58.5087 18.6058 58.213 18.6058C57.8001 18.6058 57.4542 18.7509 57.1752 19.041C56.9018 19.3256 56.765 19.6771 56.765 20.0956C56.765 20.5085 56.9045 20.86 57.1835 21.1502C57.4625 21.4348 57.8085 21.577 58.2214 21.577C58.5283 21.577 58.7961 21.4961 59.0249 21.3343C59.2536 21.1669 59.4266 20.9437 59.5438 20.6647L60.5565 21.1C60.3556 21.5687 60.0515 21.9425 59.6442 22.2215C59.2369 22.5005 58.757 22.64 58.2046 22.64ZM65.1121 21.8951C64.6211 22.3917 64.0241 22.64 63.321 22.64C62.618 22.64 62.0182 22.3917 61.5216 21.8951C61.0305 21.3985 60.785 20.7987 60.785 20.0956C60.785 19.3814 61.0305 18.7788 61.5216 18.2878C62.0126 17.7912 62.6124 17.5429 63.321 17.5429C64.0241 17.5429 64.6211 17.7912 65.1121 18.2878C65.6088 18.7788 65.8571 19.3814 65.8571 20.0956C65.8571 20.7987 65.6088 21.3985 65.1121 21.8951ZM62.3083 21.1418C62.5817 21.432 62.9193 21.577 63.321 21.577C63.7228 21.577 64.0604 21.432 64.3338 21.1418C64.6072 20.8517 64.7439 20.5029 64.7439 20.0956C64.7439 19.6771 64.6072 19.3256 64.3338 19.041C64.0604 18.7509 63.7228 18.6058 63.321 18.6058C62.9193 18.6058 62.5817 18.7509 62.3083 19.041C62.0349 19.3256 61.8982 19.6771 61.8982 20.0956C61.8982 20.5029 62.0349 20.8517 62.3083 21.1418ZM66.3549 22.5396V17.6433H67.4764V18.2124C67.8112 17.7661 68.2771 17.5429 68.8742 17.5429C69.6275 17.5429 70.1575 17.8246 70.4644 18.3882C70.6374 18.126 70.8606 17.9195 71.134 17.7688C71.413 17.6182 71.7254 17.5429 72.0714 17.5429C72.7242 17.5429 73.218 17.7214 73.5528 18.0785C73.8932 18.4356 74.0634 18.9406 74.0634 19.5934V22.5396H72.9084V19.6855C72.9084 19.3228 72.8163 19.0382 72.6322 18.8318C72.4536 18.6253 72.1914 18.5221 71.8454 18.5221C71.5274 18.5221 71.2679 18.6337 71.067 18.8569C70.8662 19.0745 70.7657 19.3898 70.7657 19.8027V22.5396H69.6191V19.652C69.6191 19.2949 69.5298 19.0187 69.3513 18.8234C69.1783 18.6225 68.9244 18.5221 68.5896 18.5221C68.2604 18.5221 67.9926 18.6337 67.7861 18.8569C67.5853 19.0801 67.4848 19.4037 67.4848 19.8278V22.5396H66.3549Z" fill="url(#paint0_linear_3644_19)"/>
<path d="M11.4907 0C9.33449 0 7.17826 0.0574994 5.16578 0.201248C3.88848 0.284233 2.68353 0.823436 1.77056 1.72058C0.857591 2.61771 0.297394 3.81305 0.19208 5.0887C-0.0379173 8.16492 -0.066667 11.2124 0.134581 14.2886C0.244789 15.6557 0.870252 16.9299 1.88439 17.8533C2.89853 18.7767 4.2256 19.2804 5.59703 19.2623H8.61575V15.5248H5.59703C4.70579 15.5536 3.92954 14.9211 3.84329 14.0299C3.6708 11.1549 3.69955 8.27992 3.90079 5.40495C3.95829 4.59995 4.59079 3.99621 5.39578 3.93871C7.35076 3.79496 9.42074 3.73746 11.4907 3.73746C13.5607 3.73746 15.6307 3.82371 17.5857 3.90996C18.3619 3.96746 19.0231 4.57121 19.0806 5.3762C19.3106 8.25117 19.3106 11.1261 19.1381 14.0011C19.0231 14.8924 18.2757 15.5536 17.3844 15.5248H14.3657L8.61575 19.2623V22.9998L14.3657 19.2623H17.3844C20.2306 19.2911 22.6169 17.1061 22.8469 14.2886C23.0481 11.2411 23.0194 8.16492 22.8181 5.11745C22.7128 3.8418 22.1526 2.64646 21.2396 1.74933C20.3267 0.852186 19.1217 0.312982 17.8444 0.229998C15.8032 0.0574994 13.6469 0 11.4907 0ZM6.66077 8.39492C6.31577 8.39492 6.02827 8.68242 6.02827 9.02741V11.2699C6.02827 11.5861 6.20077 11.8736 6.48827 12.0174C8.04075 12.7649 9.76574 13.1674 11.4907 13.2249C13.2157 13.1674 14.9407 12.7649 16.4932 12.0174C16.7807 11.8736 16.9532 11.5861 16.9532 11.2699V9.02741C16.9532 8.94116 16.9244 8.88366 16.8669 8.82616C16.8367 8.74728 16.7908 8.67537 16.7319 8.61485C16.673 8.55432 16.6024 8.50645 16.5243 8.47416C16.4463 8.44187 16.3625 8.42583 16.278 8.42704C16.1936 8.42824 16.1103 8.44666 16.0332 8.48117C14.5957 9.11366 13.0432 9.45866 11.462 9.48741C9.88073 9.45866 8.32825 9.08491 6.89076 8.45242C6.81928 8.41653 6.74073 8.39689 6.66077 8.39492Z" fill="url(#paint1_linear_3644_19)"/>
<defs>
<linearGradient id="paint0_linear_3644_19" x1="54" y1="23" x2="74" y2="17.5" gradientUnits="userSpaceOnUse">
<stop stop-color="#6EF638"/>
<stop offset="1" stop-color="#58C52D"/>
</linearGradient>
<linearGradient id="paint1_linear_3644_19" x1="23.04" y1="9.85338e-07" x2="4.49983e-07" y2="23.04" gradientUnits="userSpaceOnUse">
<stop stop-color="#6EF638"/>
<stop offset="1" stop-color="#58C52D"/>
</linearGradient>
</defs>
</svg>
